<svg xmlns="http://www.w3.org/2000/svg" width="760" height="300" viewBox="0 0 760 300" font-family="Georgia,serif" font-size="11"><rect width="760" height="300" fill="#ffffff"/><text x="380" y="18" text-anchor="middle" font-size="13" font-weight="bold">Figure 3 - D_L1 vs veto rate, speed_stuck</text><line x1="58" y1="254" x2="742" y2="254" stroke="#333"/><line x1="58" y1="254" x2="58" y2="34" stroke="#333"/><line x1="58" y1="254.0" x2="742" y2="254.0" stroke="#eee"/><text x="52" y="257.0" text-anchor="end" fill="#444">0.40</text><line x1="58" y1="210.0" x2="742" y2="210.0" stroke="#eee"/><text x="52" y="213.0" text-anchor="end" fill="#444">0.52</text><line x1="58" y1="166.0" x2="742" y2="166.0" stroke="#eee"/><text x="52" y="169.0" text-anchor="end" fill="#444">0.64</text><line x1="58" y1="122.0" x2="742" y2="122.0" stroke="#eee"/><text x="52" y="125.0" text-anchor="end" fill="#444">0.76</text><line x1="58" y1="78.0" x2="742" y2="78.0" stroke="#eee"/><text x="52" y="81.0" text-anchor="end" fill="#444">0.88</text><line x1="58" y1="34.0" x2="742" y2="34.0" stroke="#eee"/><text x="52" y="37.0" text-anchor="end" fill="#444">1.00</text><text x="58.0" y="269" text-anchor="middle" fill="#444">0.00</text><text x="194.8" y="269" text-anchor="middle" fill="#444">0.20</text><text x="331.6" y="269" text-anchor="middle" fill="#444">0.40</text><text x="468.4" y="269" text-anchor="middle" fill="#444">0.59</text><text x="605.2" y="269" text-anchor="middle" fill="#444">0.79</text><text x="742.0" y="269" text-anchor="middle" fill="#444">0.99</text><text x="400" y="288" text-anchor="middle" fill="#333">veto rate (faulted arm)</text><line x1="58" y1="180.7" x2="742" y2="180.7" stroke="#c0392b" stroke-dasharray="5,3"/><circle cx="63.2" cy="60.6" r="2.6" fill="#1b6ca8" opacity="0.75"/><circle cx="71.8" cy="135.8" r="2.6" fill="#1b6ca8" opacity="0.75"/><circle cx="70.1" cy="49.6" r="2.6" fill="#1b6ca8" opacity="0.75"/><circle cx="101.2" cy="45.9" r="2.6" fill="#1b6ca8" opacity="0.75"/><circle cx="63.2" cy="44.1" r="2.6" fill="#1b6ca8" opacity="0.75"/><circle cx="70.1" cy="176.1" r="2.6" fill="#1b6ca8" opacity="0.75"/><circle cx="75.3" cy="51.4" r="2.6" fill="#1b6ca8" opacity="0.75"/><circle cx="68.4" cy="91.8" r="2.6" fill="#1b6ca8" opacity="0.75"/><circle cx="59.7" cy="34.9" r="2.6" fill="#1b6ca8" opacity="0.75"/><circle cx="64.9" cy="62.4" r="2.6" fill="#1b6ca8" opacity="0.75"/><circle cx="63.2" cy="38.6" r="2.6" fill="#1b6ca8" opacity="0.75"/><circle cx="64.9" cy="49.6" r="2.6" fill="#1b6ca8" opacity="0.75"/><circle cx="78.7" cy="71.6" r="2.6" fill="#1b6ca8" opacity="0.75"/><circle cx="64.9" cy="51.4" r="2.6" fill="#1b6ca8" opacity="0.75"/><circle cx="75.3" cy="88.1" r="2.6" fill="#1b6ca8" opacity="0.75"/><circle cx="82.2" cy="34.9" r="2.6" fill="#1b6ca8" opacity="0.75"/><circle cx="106.4" cy="64.3" r="2.6" fill="#1b6ca8" opacity="0.75"/><circle cx="71.8" cy="34.9" r="2.6" fill="#1b6ca8" opacity="0.75"/><circle cx="99.5" cy="36.8" r="2.6" fill="#1b6ca8" opacity="0.75"/><circle cx="70.1" cy="73.4" r="2.6" fill="#1b6ca8" opacity="0.75"/><circle cx="104.6" cy="71.6" r="2.6" fill="#1b6ca8" opacity="0.75"/><circle cx="77.0" cy="34.9" r="2.6" fill="#1b6ca8" opacity="0.75"/><circle cx="77.0" cy="34.9" r="2.6" fill="#1b6ca8" opacity="0.75"/><circle cx="73.5" cy="44.1" r="2.6" fill="#1b6ca8" opacity="0.75"/><circle cx="61.5" cy="38.6" r="2.6" fill="#1b6ca8" opacity="0.75"/><circle cx="61.5" cy="34.9" r="2.6" fill="#1b6ca8" opacity="0.75"/><circle cx="70.1" cy="69.8" r="2.6" fill="#1b6ca8" opacity="0.75"/><circle cx="108.1" cy="34.9" r="2.6" fill="#1b6ca8" opacity="0.75"/><circle cx="70.1" cy="40.4" r="2.6" fill="#1b6ca8" opacity="0.75"/><circle cx="68.4" cy="42.2" r="2.6" fill="#1b6ca8" opacity="0.75"/><text x="738" y="44" text-anchor="end" fill="#1b6ca8">P1</text><circle cx="503.6" cy="155.9" r="2.6" fill="#c0392b" opacity="0.75"/><circle cx="481.2" cy="60.6" r="2.6" fill="#c0392b" opacity="0.75"/><circle cx="519.2" cy="34.9" r="2.6" fill="#c0392b" opacity="0.75"/><circle cx="721.3" cy="45.9" r="2.6" fill="#c0392b" opacity="0.75"/><circle cx="721.3" cy="88.1" r="2.6" fill="#c0392b" opacity="0.75"/><circle cx="698.8" cy="82.6" r="2.6" fill="#c0392b" opacity="0.75"/><circle cx="698.8" cy="201.8" r="2.6" fill="#c0392b" opacity="0.75"/><circle cx="505.4" cy="58.8" r="2.6" fill="#c0392b" opacity="0.75"/><circle cx="476.0" cy="45.9" r="2.6" fill="#c0392b" opacity="0.75"/><circle cx="527.8" cy="157.8" r="2.6" fill="#c0392b" opacity="0.75"/><circle cx="495.0" cy="34.9" r="2.6" fill="#c0392b" opacity="0.75"/><circle cx="501.9" cy="152.2" r="2.6" fill="#c0392b" opacity="0.75"/><circle cx="698.8" cy="179.8" r="2.6" fill="#c0392b" opacity="0.75"/><circle cx="733.4" cy="157.8" r="2.6" fill="#c0392b" opacity="0.75"/><circle cx="697.1" cy="170.6" r="2.6" fill="#c0392b" opacity="0.75"/><circle cx="501.9" cy="168.8" r="2.6" fill="#c0392b" opacity="0.75"/><circle cx="726.5" cy="110.1" r="2.6" fill="#c0392b" opacity="0.75"/><circle cx="712.6" cy="77.1" r="2.6" fill="#c0392b" opacity="0.75"/><circle cx="503.6" cy="36.8" r="2.6" fill="#c0392b" opacity="0.75"/><circle cx="520.9" cy="34.9" r="2.6" fill="#c0392b" opacity="0.75"/><circle cx="698.8" cy="201.8" r="2.6" fill="#c0392b" opacity="0.75"/><circle cx="719.5" cy="207.2" r="2.6" fill="#c0392b" opacity="0.75"/><circle cx="716.1" cy="38.6" r="2.6" fill="#c0392b" opacity="0.75"/><circle cx="641.8" cy="34.9" r="2.6" fill="#c0392b" opacity="0.75"/><circle cx="496.7" cy="62.4" r="2.6" fill="#c0392b" opacity="0.75"/><circle cx="536.5" cy="44.1" r="2.6" fill="#c0392b" opacity="0.75"/><circle cx="510.5" cy="34.9" r="2.6" fill="#c0392b" opacity="0.75"/><circle cx="742.0" cy="126.6" r="2.6" fill="#c0392b" opacity="0.75"/><circle cx="710.9" cy="77.1" r="2.6" fill="#c0392b" opacity="0.75"/><circle cx="724.7" cy="95.4" r="2.6" fill="#c0392b" opacity="0.75"/><text x="738" y="56" text-anchor="end" fill="#c0392b">P2</text><circle cx="63.2" cy="38.6" r="2.6" fill="#27795b" opacity="0.75"/><circle cx="59.7" cy="36.8" r="2.6" fill="#27795b" opacity="0.75"/><circle cx="63.2" cy="53.2" r="2.6" fill="#27795b" opacity="0.75"/><circle cx="64.9" cy="42.2" r="2.6" fill="#27795b" opacity="0.75"/><circle cx="58.0" cy="36.8" r="2.6" fill="#27795b" opacity="0.75"/><circle cx="66.6" cy="36.8" r="2.6" fill="#27795b" opacity="0.75"/><circle cx="64.9" cy="42.2" r="2.6" fill="#27795b" opacity="0.75"/><circle cx="63.2" cy="45.9" r="2.6" fill="#27795b" opacity="0.75"/><circle cx="58.0" cy="34.9" r="2.6" fill="#27795b" opacity="0.75"/><circle cx="59.7" cy="34.9" r="2.6" fill="#27795b" opacity="0.75"/><circle cx="59.7" cy="34.9" r="2.6" fill="#27795b" opacity="0.75"/><circle cx="59.7" cy="36.8" r="2.6" fill="#27795b" opacity="0.75"/><circle cx="61.5" cy="40.4" r="2.6" fill="#27795b" opacity="0.75"/><circle cx="58.0" cy="36.8" r="2.6" fill="#27795b" opacity="0.75"/><circle cx="61.5" cy="42.2" r="2.6" fill="#27795b" opacity="0.75"/><circle cx="64.9" cy="34.9" r="2.6" fill="#27795b" opacity="0.75"/><circle cx="64.9" cy="62.4" r="2.6" fill="#27795b" opacity="0.75"/><circle cx="61.5" cy="115.6" r="2.6" fill="#27795b" opacity="0.75"/><circle cx="66.6" cy="45.9" r="2.6" fill="#27795b" opacity="0.75"/><circle cx="58.0" cy="45.9" r="2.6" fill="#27795b" opacity="0.75"/><circle cx="64.9" cy="56.9" r="2.6" fill="#27795b" opacity="0.75"/><circle cx="61.5" cy="38.6" r="2.6" fill="#27795b" opacity="0.75"/><circle cx="66.6" cy="38.6" r="2.6" fill="#27795b" opacity="0.75"/><circle cx="59.7" cy="75.3" r="2.6" fill="#27795b" opacity="0.75"/><circle cx="59.7" cy="42.2" r="2.6" fill="#27795b" opacity="0.75"/><circle cx="58.0" cy="34.9" r="2.6" fill="#27795b" opacity="0.75"/><circle cx="68.4" cy="34.9" r="2.6" fill="#27795b" opacity="0.75"/><circle cx="64.9" cy="34.9" r="2.6" fill="#27795b" opacity="0.75"/><circle cx="64.9" cy="40.4" r="2.6" fill="#27795b" opacity="0.75"/><circle cx="59.7" cy="34.9" r="2.6" fill="#27795b" opacity="0.75"/><text x="738" y="68" text-anchor="end" fill="#27795b">P3</text><text x="64" y="44" fill="#333">rho = -0.457, p = 0.0001  (EXPLORATORY)</text></svg>