<svg xmlns="http://www.w3.org/2000/svg" width="720" height="300" viewBox="0 0 720 300" font-family="Georgia,serif" font-size="11"><rect width="720" height="300" fill="#fff"/><text x="360" y="17" text-anchor="middle" font-size="12.5" font-weight="bold">Figure 1P3 - clean calibration scores and frozen threshold (P3, n=12000)</text><line x1="62" y1="256" x2="702" y2="256" stroke="#333"/><line x1="62" y1="256" x2="62" y2="34" stroke="#333"/><line x1="62" y1="256.0" x2="702" y2="256.0" stroke="#eee"/><text x="56" y="259.0" text-anchor="end" fill="#444">0</text><line x1="62" y1="211.6" x2="702" y2="211.6" stroke="#eee"/><text x="56" y="214.6" text-anchor="end" fill="#444">0.21</text><line x1="62" y1="167.2" x2="702" y2="167.2" stroke="#eee"/><text x="56" y="170.2" text-anchor="end" fill="#444">0.42</text><line x1="62" y1="122.8" x2="702" y2="122.8" stroke="#eee"/><text x="56" y="125.8" text-anchor="end" fill="#444">0.63</text><line x1="62" y1="78.4" x2="702" y2="78.4" stroke="#eee"/><text x="56" y="81.4" text-anchor="end" fill="#444">0.84</text><line x1="62" y1="34.0" x2="702" y2="34.0" stroke="#eee"/><text x="56" y="37.0" text-anchor="end" fill="#444">1.05</text><text x="62.0" y="271" text-anchor="middle" fill="#444">3.11</text><text x="190.0" y="271" text-anchor="middle" fill="#444">3.21</text><text x="318.0" y="271" text-anchor="middle" fill="#444">3.3</text><text x="446.0" y="271" text-anchor="middle" fill="#444">3.4</text><text x="574.0" y="271" text-anchor="middle" fill="#444">3.49</text><text x="702.0" y="271" text-anchor="middle" fill="#444">3.58</text><text x="382" y="292" text-anchor="middle" fill="#333">non-conformity score</text><text x="14" y="145" text-anchor="middle" fill="#333" transform="rotate(-90 14 145)">density (scaled)</text><rect x="190.0" y="255.8" width="15.5" height="0.2" fill="#27795b" opacity="0.55"/><rect x="206.0" y="255.8" width="15.5" height="0.2" fill="#27795b" opacity="0.55"/><rect x="222.0" y="255.7" width="15.5" height="0.3" fill="#27795b" opacity="0.55"/><rect x="238.0" y="255.8" width="15.5" height="0.2" fill="#27795b" opacity="0.55"/><rect x="254.0" y="255.9" width="15.5" height="0.1" fill="#27795b" opacity="0.55"/><rect x="270.0" y="255.9" width="15.5" height="0.1" fill="#27795b" opacity="0.55"/><rect x="366.0" y="255.7" width="15.5" height="0.3" fill="#27795b" opacity="0.55"/><rect x="382.0" y="251.9" width="15.5" height="4.1" fill="#27795b" opacity="0.55"/><rect x="398.0" y="233.1" width="15.5" height="22.9" fill="#27795b" opacity="0.55"/><rect x="414.0" y="44.6" width="15.5" height="211.4" fill="#27795b" opacity="0.55"/><rect x="430.0" y="131.9" width="15.5" height="124.1" fill="#27795b" opacity="0.55"/><rect x="446.0" y="221.0" width="15.5" height="35.0" fill="#27795b" opacity="0.55"/><rect x="462.0" y="251.3" width="15.5" height="4.7" fill="#27795b" opacity="0.55"/><rect x="478.0" y="253.9" width="15.5" height="2.1" fill="#27795b" opacity="0.55"/><rect x="494.0" y="255.4" width="15.5" height="0.6" fill="#27795b" opacity="0.55"/><rect x="510.0" y="256.0" width="15.5" height="0.0" fill="#27795b" opacity="0.55"/><rect x="526.0" y="255.8" width="15.5" height="0.2" fill="#27795b" opacity="0.55"/><rect x="558.0" y="255.9" width="15.5" height="0.1" fill="#27795b" opacity="0.55"/><line x1="452.3" y1="256.0" x2="452.3" y2="34.0" stroke="#b0362a" stroke-width="1.8" stroke-dasharray="5,3"/><text x="457.3" y="44.6" fill="#b0362a">frozen q = 3.4000</text></svg>