<svg xmlns="http://www.w3.org/2000/svg" width="720" height="592" viewBox="0 0 720 592" font-family="Georgia,serif" font-size="11"><rect width="720" height="592" fill="#fff"/><text x="360" y="17" text-anchor="middle" font-size="12.5" font-weight="bold">Figure 3 - fault score relative to the frozen threshold (median, IQR)</text><line x1="252.6" y1="34" x2="252.6" y2="566" stroke="#b0362a" stroke-width="1.6" stroke-dasharray="4,3"/><text x="252.6" y="580" text-anchor="middle" fill="#b0362a">firing threshold</text><text x="202" y="51" text-anchor="end" fill="#333" font-size="9.5">P1  position_bias low</text><line x1="238.9" y1="48" x2="241.3" y2="48" stroke="#1b6ca8" stroke-width="1.4"/><circle cx="240.1" cy="48" r="3.2" fill="#1b6ca8"/><text x="202" y="70" text-anchor="end" fill="#333" font-size="9.5">P1  position_bias medium</text><line x1="576.5" y1="67" x2="593.9" y2="67" stroke="#1b6ca8" stroke-width="1.4"/><circle cx="591.8" cy="67" r="3.2" fill="#1b6ca8"/><text x="202" y="89" text-anchor="end" fill="#333" font-size="9.5">P1  position_bias high</text><line x1="570.7" y1="86" x2="576.2" y2="86" stroke="#1b6ca8" stroke-width="1.4"/><circle cx="574.6" cy="86" r="3.2" fill="#1b6ca8"/><text x="202" y="108" text-anchor="end" fill="#333" font-size="9.5">P1  position_drift low</text><line x1="239.0" y1="105" x2="241.3" y2="105" stroke="#1b6ca8" stroke-width="1.4"/><circle cx="240.1" cy="105" r="3.2" fill="#1b6ca8"/><text x="202" y="127" text-anchor="end" fill="#333" font-size="9.5">P1  position_drift medium</text><line x1="387.2" y1="124" x2="411.6" y2="124" stroke="#1b6ca8" stroke-width="1.4"/><circle cx="403.4" cy="124" r="3.2" fill="#1b6ca8"/><text x="202" y="146" text-anchor="end" fill="#333" font-size="9.5">P1  position_drift high</text><line x1="481.3" y1="143" x2="498.9" y2="143" stroke="#1b6ca8" stroke-width="1.4"/><circle cx="491.5" cy="143" r="3.2" fill="#1b6ca8"/><text x="202" y="165" text-anchor="end" fill="#333" font-size="9.5">P1  speed_bias low</text><line x1="240.4" y1="162" x2="241.8" y2="162" stroke="#1b6ca8" stroke-width="1.4"/><circle cx="241.2" cy="162" r="3.2" fill="#1b6ca8"/><text x="202" y="184" text-anchor="end" fill="#333" font-size="9.5">P1  speed_bias medium</text><line x1="240.0" y1="181" x2="240.5" y2="181" stroke="#1b6ca8" stroke-width="1.4"/><circle cx="240.2" cy="181" r="3.2" fill="#1b6ca8"/><text x="202" y="203" text-anchor="end" fill="#333" font-size="9.5">P1  speed_bias high</text><line x1="241.4" y1="200" x2="243.8" y2="200" stroke="#1b6ca8" stroke-width="1.4"/><circle cx="241.9" cy="200" r="3.2" fill="#1b6ca8"/><text x="202" y="222" text-anchor="end" fill="#333" font-size="9.5">P1  lateral_noise low</text><line x1="236.3" y1="219" x2="239.0" y2="219" stroke="#1b6ca8" stroke-width="1.4"/><circle cx="237.5" cy="219" r="3.2" fill="#1b6ca8"/><text x="202" y="241" text-anchor="end" fill="#333" font-size="9.5">P1  lateral_noise medium</text><line x1="234.7" y1="238" x2="353.2" y2="238" stroke="#1b6ca8" stroke-width="1.4"/><circle cx="267.6" cy="238" r="3.2" fill="#1b6ca8"/><text x="202" y="260" text-anchor="end" fill="#333" font-size="9.5">P1  lateral_noise high</text><line x1="279.4" y1="257" x2="384.4" y2="257" stroke="#1b6ca8" stroke-width="1.4"/><circle cx="351.3" cy="257" r="3.2" fill="#1b6ca8"/><text x="202" y="279" text-anchor="end" fill="#333" font-size="9.5">P1  speed_stuck medium</text><line x1="240.8" y1="276" x2="243.6" y2="276" stroke="#1b6ca8" stroke-width="1.4"/><circle cx="242.4" cy="276" r="3.2" fill="#1b6ca8"/><text x="202" y="298" text-anchor="end" fill="#333" font-size="9.5">P1  imu_dropout medium</text><line x1="236.0" y1="295" x2="239.1" y2="295" stroke="#1b6ca8" stroke-width="1.4"/><circle cx="237.9" cy="295" r="3.2" fill="#1b6ca8"/><text x="202" y="317" text-anchor="end" fill="#333" font-size="9.5">P3  position_bias low</text><line x1="243.7" y1="314" x2="249.3" y2="314" stroke="#27795b" stroke-width="1.4"/><circle cx="247.5" cy="314" r="3.2" fill="#27795b"/><text x="202" y="336" text-anchor="end" fill="#333" font-size="9.5">P3  position_bias medium</text><line x1="656.7" y1="333" x2="675.3" y2="333" stroke="#27795b" stroke-width="1.4"/><circle cx="668.3" cy="333" r="3.2" fill="#27795b"/><text x="202" y="355" text-anchor="end" fill="#333" font-size="9.5">P3  position_bias high</text><line x1="530.0" y1="352" x2="614.4" y2="352" stroke="#27795b" stroke-width="1.4"/><circle cx="585.6" cy="352" r="3.2" fill="#27795b"/><text x="202" y="374" text-anchor="end" fill="#333" font-size="9.5">P3  position_drift low</text><line x1="243.3" y1="371" x2="248.5" y2="371" stroke="#27795b" stroke-width="1.4"/><circle cx="246.7" cy="371" r="3.2" fill="#27795b"/><text x="202" y="393" text-anchor="end" fill="#333" font-size="9.5">P3  position_drift medium</text><line x1="415.5" y1="390" x2="442.5" y2="390" stroke="#27795b" stroke-width="1.4"/><circle cx="432.2" cy="390" r="3.2" fill="#27795b"/><text x="202" y="412" text-anchor="end" fill="#333" font-size="9.5">P3  position_drift high</text><line x1="519.8" y1="409" x2="537.0" y2="409" stroke="#27795b" stroke-width="1.4"/><circle cx="529.5" cy="409" r="3.2" fill="#27795b"/><text x="202" y="431" text-anchor="end" fill="#333" font-size="9.5">P3  speed_bias low</text><line x1="241.3" y1="428" x2="244.8" y2="428" stroke="#27795b" stroke-width="1.4"/><circle cx="243.5" cy="428" r="3.2" fill="#27795b"/><text x="202" y="450" text-anchor="end" fill="#333" font-size="9.5">P3  speed_bias medium</text><line x1="240.5" y1="447" x2="240.9" y2="447" stroke="#27795b" stroke-width="1.4"/><circle cx="240.7" cy="447" r="3.2" fill="#27795b"/><text x="202" y="469" text-anchor="end" fill="#333" font-size="9.5">P3  speed_bias high</text><line x1="241.0" y1="466" x2="243.8" y2="466" stroke="#27795b" stroke-width="1.4"/><circle cx="241.5" cy="466" r="3.2" fill="#27795b"/><text x="202" y="488" text-anchor="end" fill="#333" font-size="9.5">P3  lateral_noise low</text><line x1="247.2" y1="485" x2="254.0" y2="485" stroke="#27795b" stroke-width="1.4"/><circle cx="251.8" cy="485" r="3.2" fill="#27795b"/><text x="202" y="507" text-anchor="end" fill="#333" font-size="9.5">P3  lateral_noise medium</text><line x1="287.5" y1="504" x2="394.1" y2="504" stroke="#27795b" stroke-width="1.4"/><circle cx="316.8" cy="504" r="3.2" fill="#27795b"/><text x="202" y="526" text-anchor="end" fill="#333" font-size="9.5">P3  lateral_noise high</text><line x1="420.7" y1="523" x2="537.4" y2="523" stroke="#27795b" stroke-width="1.4"/><circle cx="481.4" cy="523" r="3.2" fill="#27795b"/><text x="202" y="545" text-anchor="end" fill="#333" font-size="9.5">P3  speed_stuck medium</text><line x1="241.9" y1="542" x2="247.8" y2="542" stroke="#27795b" stroke-width="1.4"/><circle cx="245.6" cy="542" r="3.2" fill="#27795b"/><text x="202" y="564" text-anchor="end" fill="#333" font-size="9.5">P3  imu_dropout medium</text><line x1="244.8" y1="561" x2="251.1" y2="561" stroke="#27795b" stroke-width="1.4"/><circle cx="246.8" cy="561" r="3.2" fill="#27795b"/></svg>